<svg width="286" height="180" viewBox="0 0 286 180" fill="none" xmlns="http://www.w3.org/2000/svg">
<rect width="286" height="180" fill="#224983"/>
<path d="M51 111C51 100.507 59.5066 92 70 92V92C80.4934 92 89 100.507 89 111V128C89 130.761 86.7614 133 84 133H56C53.2386 133 51 130.761 51 128V111Z" fill="white"/>
<path d="M54 71C54 62.1634 61.1634 55 70 55V55C78.8366 55 86 62.1634 86 71V71C86 79.8366 78.8366 87 70 87V87C61.1634 87 54 79.8366 54 71V71Z" fill="white"/>
<path d="M102.667 82C102.667 73.1634 109.83 66 118.667 66V66C127.503 66 134.667 73.1634 134.667 82V82C134.667 90.8366 127.503 98 118.667 98V98C109.83 98 102.667 90.8366 102.667 82V82Z" fill="white"/>
<path d="M99.6667 122C99.6667 111.507 108.173 103 118.667 103V103C129.16 103 137.667 111.507 137.667 122V128C137.667 130.761 135.428 133 132.667 133H104.667C101.905 133 99.6667 130.761 99.6667 128V122Z" fill="white"/>
<path d="M148.333 115C148.333 104.507 156.84 96 167.333 96V96C177.827 96 186.333 104.507 186.333 115V128C186.333 130.761 184.095 133 181.333 133H153.333C150.572 133 148.333 130.761 148.333 128V115Z" fill="white"/>
<path d="M151.333 71C151.333 62.1634 158.497 55 167.333 55V55C176.17 55 183.333 62.1634 183.333 71V71C183.333 79.8366 176.17 87 167.333 87V87C158.497 87 151.333 79.8366 151.333 71V71Z" fill="white"/>
<path d="M200 63C200 54.1634 207.163 47 216 47V47C224.837 47 232 54.1634 232 63V63C232 71.8366 224.837 79 216 79V79C207.163 79 200 71.8366 200 63V63Z" fill="white"/>
<path d="M197 103C197 92.5066 205.507 84 216 84V84C226.493 84 235 92.5066 235 103V128C235 130.761 232.761 133 230 133H202C199.239 133 197 130.761 197 128V103Z" fill="white"/>
</svg>
