<svg width="63" height="60" viewBox="0 0 63 60" fill="none" xmlns="http://www.w3.org/2000/svg">
<g clip-path="url(#clip0_15_18)">
<rect width="62.3765" height="60" fill="white"/>
<path d="M62.3765 30.7329H0V60H62.3765V30.7329Z" fill="#D73648"/>
<path d="M56.8812 39.9834C56.5444 40.1892 55.2407 40.2017 54.4547 40.2017C54.4547 39.2536 54.4547 38.2119 54.4547 37.2326C54.4547 36.7024 54.4547 36.141 54.4984 35.5858C54.4984 35.3051 54.4235 35.1617 53.9245 35.1617H53.3257C53.3694 35.879 53.4006 36.5714 53.4006 37.2513V38.7857C53.4006 39.3284 53.4006 39.8711 53.3569 40.4262C53.3569 40.6446 53.3569 40.8504 53.8871 40.8504H56.5069C56.6076 40.8351 56.7002 40.786 56.7693 40.7112C56.8384 40.6364 56.8801 40.5403 56.8874 40.4387C56.8874 40.4387 56.8812 40.2953 56.8812 39.9834ZM43.3642 38.0497H42.7404C42.8086 38.4618 42.8337 38.8799 42.8153 39.2972C42.8153 39.5779 42.8153 39.8586 42.8153 40.1331C42.4269 40.2702 42.0169 40.3357 41.6052 40.3264C41.3058 40.3419 41.0065 40.2929 40.7277 40.1828C40.4488 40.0727 40.1968 39.9041 39.9887 39.6883C39.7806 39.4724 39.6212 39.2145 39.5213 38.9318C39.4213 38.6492 39.3832 38.3484 39.4095 38.0497C39.4095 36.746 40.158 35.7231 41.5303 35.7231C42.225 35.7708 42.8838 36.0497 43.4016 36.5152L43.5763 36.0162C43.6162 35.9243 43.6183 35.8204 43.5821 35.727C43.5459 35.6336 43.4743 35.5582 43.3829 35.5172C42.7962 35.2496 42.1562 35.1194 41.5116 35.1367C39.6403 35.1367 38.2181 36.0287 38.2181 38.0497C38.2181 40.0707 39.6403 40.9502 41.4679 40.9502C42.2701 40.917 43.0646 40.7808 43.832 40.5448V39.7962C43.832 39.3409 43.832 38.9354 43.832 38.4676C43.8324 38.4083 43.8202 38.3495 43.7962 38.2953C43.7721 38.241 43.7368 38.1925 43.6925 38.153C43.6483 38.1134 43.5961 38.0838 43.5395 38.066C43.4829 38.0482 43.4231 38.0426 43.3642 38.0497ZM48.9282 45.0047H47.9925C48.0028 45.1643 47.9772 45.3241 47.9177 45.4725C47.7243 45.8655 47.4935 46.2772 47.2939 46.6701C47.0943 47.0631 46.5891 47.8678 46.3583 48.2358C45.7906 47.3126 45.3041 46.3645 44.7926 45.4101C44.7247 45.2783 44.619 45.1698 44.4889 45.0987C44.3588 45.0275 44.2104 44.997 44.0628 45.0109H42.8964C43.8757 46.4144 44.6367 47.6869 45.4538 49.0779C45.4538 49.8825 45.4538 50.9492 45.3977 51.7725C45.3941 51.8318 45.4045 51.8911 45.4279 51.9456C45.4514 52.0002 45.4873 52.0485 45.5327 52.0867C45.5782 52.1249 45.632 52.1519 45.6898 52.1656C45.7475 52.1793 45.8077 52.1792 45.8655 52.1655H46.9072C46.7824 51.1488 46.7824 49.9699 46.7824 48.9905C47.4561 47.7742 48.2296 46.6514 49.0654 45.4226C49.1222 45.3525 49.1491 45.2629 49.1403 45.1731C49.1395 45.1458 49.1332 45.1189 49.1216 45.0941C49.1101 45.0693 49.0935 45.0472 49.0731 45.029C49.0526 45.0109 49.0286 44.9972 49.0026 44.9887C48.9766 44.9802 48.9492 44.9772 48.9219 44.9797L48.9282 45.0047ZM34.0015 36.4716C34.0077 36.357 34.037 36.2449 34.0875 36.1419C34.138 36.0389 34.2087 35.9471 34.2954 35.872C34.3821 35.7969 34.4831 35.7401 34.5923 35.7048C34.7015 35.6696 34.8166 35.6567 34.9309 35.6669C35.1814 35.6696 35.4272 35.7356 35.6453 35.8589C35.8634 35.9821 36.0468 36.1586 36.1784 36.3718C36.3357 36.1649 36.4406 35.9231 36.4841 35.6669C36.4841 35.1866 35.3862 35.0432 35.0182 35.0432C34.0389 35.0432 33.0721 35.5858 33.0721 36.6525C33.0721 38.5238 35.7355 38.0247 35.7355 39.2723C35.7406 39.4055 35.7171 39.5382 35.6667 39.6615C35.6163 39.7849 35.5401 39.8961 35.4432 39.9876C35.3464 40.0792 35.2311 40.1489 35.1051 40.1923C34.9791 40.2357 34.8452 40.2517 34.7126 40.2391C34.3927 40.2435 34.0763 40.1724 33.789 40.0315C33.5018 39.8906 33.2519 39.6839 33.0596 39.4282C32.9876 39.6515 32.9374 39.8813 32.9099 40.1144C32.901 40.2209 32.9257 40.3275 32.9805 40.4192C33.0354 40.511 33.1175 40.5832 33.2155 40.6259C33.5874 40.8108 33.9979 40.9048 34.4132 40.9003C35.5422 40.9003 36.6213 40.2765 36.6213 39.029C36.6525 37.245 34.0015 37.7877 34.0015 36.4716ZM31.706 35.143H30.945C30.8068 35.6076 30.5963 36.0475 30.3213 36.4466C29.9969 36.9581 29.6975 37.4696 29.5291 37.6942C29.0737 36.9643 28.6371 36.2158 28.2005 35.486C28.1402 35.3767 28.0486 35.2879 27.9374 35.2312C27.8262 35.1745 27.7006 35.1524 27.5767 35.1679H26.641C27.4332 36.2533 28.163 37.3636 28.8679 38.505V39.1288C28.8679 39.6528 28.8242 40.2266 28.8242 40.5323C28.8269 40.5777 28.8393 40.6221 28.8606 40.6624C28.8819 40.7026 28.9116 40.7378 28.9476 40.7656C28.9837 40.7934 29.0253 40.8131 29.0697 40.8235C29.114 40.8338 29.1601 40.8345 29.2047 40.8255H29.9782C29.9052 40.0084 29.8761 39.188 29.8909 38.3678C30.3034 37.6665 30.7532 36.9877 31.2382 36.3343C31.4316 36.0412 31.6499 35.7605 31.862 35.486C31.9023 35.4286 31.928 35.3623 31.9368 35.2927C31.9345 35.2663 31.9261 35.2407 31.9125 35.218C31.8988 35.1953 31.8801 35.176 31.8579 35.1616C31.8356 35.1472 31.8104 35.138 31.7841 35.1347C31.7578 35.1315 31.7311 35.1343 31.706 35.143ZM25.2064 35.1741H21.9815C21.9815 35.4798 22.0252 35.7605 22.0564 36.0661C22.0564 36.6088 22.0564 37.7503 22.0564 38.162C22.0564 39.1413 22.0127 39.6653 22.0127 40.4262C22.006 40.4841 22.0129 40.5428 22.0329 40.5976C22.0528 40.6523 22.0853 40.7017 22.1277 40.7416C22.1701 40.7816 22.2213 40.8112 22.2771 40.8279C22.333 40.8446 22.3919 40.848 22.4493 40.8379H23.1542C23.1417 40.183 23.0793 39.5405 23.0793 38.8793V38.1308C23.8329 38.1132 24.5865 38.1633 25.3311 38.2805C25.3311 38.0185 25.406 37.5195 25.0068 37.5195C24.6076 37.5195 23.8528 37.6068 23.0731 37.6068V36.4217C23.0731 36.2034 23.0731 35.985 23.0731 35.7605C23.8834 35.7189 24.6955 35.7882 25.4871 35.9663C25.5432 35.6732 25.6305 35.1804 25.2064 35.1804V35.1741ZM19.2494 37.7191C19.2494 36.5901 19.3056 36.3281 19.3056 35.6295C19.3188 35.5647 19.3159 35.4977 19.2973 35.4343C19.2787 35.3708 19.2449 35.3129 19.1987 35.2656C19.1526 35.2182 19.0956 35.1828 19.0327 35.1626C18.9698 35.1423 18.9028 35.1377 18.8377 35.1492H18.1641C18.2411 36.0244 18.2703 36.9031 18.2514 37.7815C18.2514 39.185 18.1953 39.4968 18.1953 40.3576C18.1867 40.4184 18.1919 40.4802 18.2104 40.5387C18.2288 40.5972 18.2601 40.6509 18.302 40.6957C18.3438 40.7405 18.3952 40.7754 18.4523 40.7979C18.5093 40.8204 18.5707 40.8298 18.6319 40.8255H19.3367C19.2806 40.183 19.2494 39.2349 19.2494 37.7253V37.7191ZM23.7031 49.4896C22.9973 49.7475 22.2436 49.8476 21.495 49.7827C21.2767 49.7827 21.2455 49.6517 21.233 49.3898V47.3438C21.9564 47.3116 22.6808 47.3809 23.385 47.5497V47.0943C23.385 46.7887 23.2228 46.6701 22.7986 46.6701C22.3745 46.6701 21.7881 46.745 21.1893 46.745C21.1893 46.3957 21.1893 45.9403 21.1893 45.591C21.1893 45.2417 21.1893 44.8612 21.1893 44.568C22.8984 44.568 23.3288 44.7115 23.5721 44.8176V44.487C23.5763 44.3471 23.528 44.2107 23.4369 44.1046C23.3457 43.9984 23.2182 43.9301 23.0793 43.9131H19.842C19.9705 44.214 20.026 44.541 20.0042 44.8675C20.0042 45.7283 20.0042 46.9633 20.0042 47.9863C20.0042 48.6017 19.9896 49.2255 19.9605 49.8576C19.9605 50.1819 20.0166 50.3691 20.3535 50.3691H23.1355C23.2003 50.3846 23.2676 50.3859 23.333 50.3729C23.3983 50.3599 23.4601 50.333 23.514 50.2938C23.5679 50.2547 23.6128 50.2044 23.6454 50.1463C23.6781 50.0882 23.6977 50.0238 23.7031 49.9574V49.4896ZM13.9474 43.8445C12.8717 43.317 11.6898 43.0418 10.4917 43.0398C6.56826 43.0398 3.96716 46.2023 3.96716 50.0634C3.96716 53.806 6.81777 56.2387 10.4668 56.2387C11.8197 56.2571 13.1478 55.8752 14.2842 55.1409L14.1345 53.8933C13.3365 54.6403 12.3006 55.082 11.2091 55.1409C7.97797 55.1409 5.82598 52.4649 5.82598 49.3461C5.82598 46.6826 7.34797 44.0503 10.2734 44.0503C11.2604 44.0311 12.2213 44.3676 12.9806 44.9984C13.4008 45.3577 13.6975 45.8399 13.8289 46.377C14.2076 45.8824 14.464 45.3053 14.5774 44.6928C14.5589 44.5077 14.4905 44.331 14.3796 44.1816C14.2687 44.0322 14.1193 43.9157 13.9474 43.8445ZM48.6038 35.1118C46.7325 35.1118 45.485 36.1098 45.485 38.0247C45.485 39.8274 46.8885 40.919 48.6038 40.919C50.3192 40.919 51.7725 39.8399 51.7725 38.0497C51.7725 36.2595 50.3566 35.1118 48.5976 35.1118H48.6038ZM48.6038 40.3327C47.2877 40.3327 46.6265 39.2224 46.6265 38.0185C46.6265 36.8146 47.2877 35.6919 48.6038 35.6919C49.92 35.6919 50.5874 36.8022 50.5874 38.0497C50.5874 39.3721 50.1071 40.3389 48.5976 40.3389L48.6038 40.3327ZM54.2177 43.9256C53.176 43.9256 52.0969 43.9256 51.0427 43.9256C51.1816 44.1493 51.261 44.4048 51.2735 44.6679C51.3484 45.6347 51.3921 46.5703 51.3921 47.5497C50.394 47.5497 49.3399 47.5497 48.3481 47.5497C48.4839 47.7775 48.565 48.0337 48.5851 48.2982C48.6724 49.3399 48.7036 50.3192 48.7036 51.3546C48.7036 52.6832 48.7036 54.0306 48.6163 55.3654C48.6177 55.4152 48.6294 55.4641 48.6507 55.5092C48.6719 55.5542 48.7022 55.5944 48.7397 55.6272C48.7772 55.66 48.821 55.6847 48.8685 55.6997C48.9159 55.7148 48.966 55.7199 49.0155 55.7147H51.3858C53.9432 55.7147 55.8457 54.3362 55.9767 51.7663C56.799 51.5064 57.5109 50.9791 57.9991 50.2682C58.4874 49.5573 58.724 48.7036 58.6714 47.8428C58.6901 45.0421 56.875 43.9318 54.2676 43.9318L54.2177 43.9256ZM55.958 50.9055C55.7522 48.9157 54.5109 47.9364 52.7082 47.6557C52.7082 46.5579 52.7519 45.6035 52.7955 44.5992C53.0801 44.5522 53.3679 44.5272 53.6563 44.5244C55.7646 44.5244 57.2243 45.7719 57.2243 47.9489C57.2738 48.5064 57.1866 49.0676 56.9703 49.5839C56.754 50.1002 56.4151 50.556 55.983 50.9117L55.958 50.9055ZM54.1865 51.4045H53.1885C53.1401 51.4106 53.091 51.4066 53.0443 51.3925C52.9976 51.3785 52.9544 51.3549 52.9174 51.3232C52.8804 51.2915 52.8504 51.2523 52.8294 51.2083C52.8084 51.1643 52.7969 51.1164 52.7955 51.0677C52.7394 50.1882 52.6895 49.3149 52.6895 48.5227C53.2474 48.7662 53.7218 49.1676 54.0543 49.6775C54.3868 50.1873 54.5629 50.7833 54.5608 51.392L54.1865 51.4045ZM51.5106 55.0473H50.525C50.4764 55.0552 50.4266 55.0529 50.3789 55.0406C50.3312 55.0283 50.2866 55.0062 50.2478 54.9757C50.2091 54.9452 50.1772 54.9069 50.154 54.8634C50.1309 54.8199 50.117 54.7721 50.1133 54.723C50.0572 53.7561 50.026 52.8517 50.026 51.8973C50.026 50.6872 50.026 49.4022 50.1258 48.242C50.4107 48.1992 50.6985 48.1783 50.9866 48.1797C51.1279 48.172 51.2695 48.172 51.4108 48.1797C51.4108 49.3648 51.3817 50.55 51.3234 51.7351C51.3257 51.7835 51.3379 51.831 51.3592 51.8745C51.3804 51.9181 51.4104 51.9568 51.4472 51.9884C51.484 52.0199 51.5269 52.0436 51.5732 52.058C51.6195 52.0723 51.6682 52.0771 51.7164 52.0719H54.0867C54.2364 52.0719 54.3924 52.0719 54.5421 52.0719C54.4048 53.7935 53.4692 55.0535 51.5355 55.0535L51.5106 55.0473ZM37.4259 43.963C36.1223 43.963 34.7063 43.963 33.5773 43.963C33.7956 44.2686 33.883 44.855 33.9453 46.0401C33.989 46.9009 34.0202 47.7804 34.0202 48.66C34.0202 49.7287 34.0056 50.7974 33.9765 51.8661C33.9765 52.4524 33.9017 53.0201 33.9017 53.6064C33.903 53.6671 33.917 53.7269 33.9428 53.782C33.9685 53.837 34.0055 53.886 34.0513 53.9259C34.0971 53.9659 34.1507 53.9958 34.2087 54.0138C34.2667 54.0318 34.3279 54.0375 34.3882 54.0306H37.3137C40.5635 54.0306 42.9899 52.2279 42.9899 48.8221C42.9899 45.4164 40.6882 43.963 37.4259 43.963ZM37.4259 53.1947H36.1784C36.1195 53.2044 36.0591 53.2017 36.0013 53.1868C35.9434 53.1719 35.8893 53.1451 35.8423 53.1082C35.7954 53.0712 35.7567 53.0249 35.7286 52.9721C35.7006 52.9194 35.6838 52.8613 35.6794 52.8018C35.6357 52.5086 35.617 52.0844 35.6045 51.7788C35.6045 51.1176 35.5609 50.1383 35.5609 49.3211C35.5609 47.8116 35.6357 46.3084 35.6919 44.8176C36.0585 44.7531 36.4299 44.7197 36.8022 44.7178C39.4095 44.7178 41.206 46.1961 41.206 48.9344C41.2309 51.3484 40.0582 53.1947 37.4696 53.1947H37.4259ZM29.5665 50.1071C30.3148 49.925 30.9816 49.4999 31.4625 48.8982C31.9433 48.2966 32.2111 47.5525 32.2237 46.7824C32.2237 44.6741 30.3524 43.9006 28.4811 43.9006C27.296 43.9006 26.0984 43.9006 24.8945 43.9443C25.0383 44.3117 25.1083 44.7038 25.1003 45.0983C25.1003 46.5454 25.1003 47.8615 25.1003 48.872C25.1003 51.6665 24.9693 53.2758 24.9693 53.806C24.9693 54.0243 25.0567 54.0555 25.2438 54.0555H27.1151C27.0035 53.8904 26.9369 53.6991 26.9217 53.5004C26.7892 52.487 26.7246 51.4659 26.7284 50.4439C27.1213 50.4439 27.5767 50.4439 27.9759 50.4439C28.4936 51.2611 29.1361 52.2154 29.8472 53.1823C30.9513 54.6294 32.4483 56.3011 34.2135 56.3011C34.6631 56.2707 35.1108 56.2165 35.5546 56.1389C33.5025 55.4278 30.839 51.9534 29.6102 50.1071H29.5665ZM27.7389 49.6954H26.7159V47.9426C26.7159 46.8885 26.7159 45.6908 26.8032 44.6679C27.1089 44.6679 27.4644 44.6055 27.8012 44.6055C29.292 44.6055 30.4897 45.3977 30.4897 47.007C30.5002 47.365 30.437 47.7214 30.3041 48.054C30.1711 48.3866 29.9712 48.6883 29.7167 48.9404C29.4623 49.1925 29.1588 49.3896 28.825 49.5195C28.4911 49.6494 28.1342 49.7092 27.7763 49.6954H27.7389ZM14.4963 38.4115C14.8851 38.3333 15.2362 38.1264 15.4931 37.8243C15.75 37.5222 15.8976 37.1423 15.9123 36.746C15.9123 35.5297 14.8456 35.1804 13.8351 35.1804H12.4628H11.7892C11.8632 35.2947 11.9081 35.4253 11.9202 35.5609C11.9638 36.1846 11.9202 37.1577 11.9202 37.9437C11.9202 38.4988 11.9202 39.0727 11.9202 39.6278C11.9202 39.9085 11.9202 40.1705 11.9202 40.445C11.9151 40.4984 11.9227 40.5524 11.9423 40.6024C11.9619 40.6524 11.993 40.6971 12.0331 40.7329C12.0731 40.7687 12.121 40.7946 12.1729 40.8085C12.2248 40.8224 12.2793 40.824 12.3319 40.813C12.5814 40.813 12.8309 40.813 13.0804 40.813C12.9952 40.0802 12.9597 39.3424 12.9743 38.6049H13.5981C13.9848 39.2972 14.409 39.921 14.9205 40.6259C15.0968 40.8953 15.3417 41.1131 15.63 41.2567C15.9183 41.4003 16.2396 41.4646 16.561 41.443H16.8417C15.9542 40.5189 15.168 39.5026 14.4963 38.4115ZM13.2488 38.1058H12.9307V37.5382C12.9307 37.1141 12.9307 36.1036 12.9307 35.6669H13.4297C13.6079 35.6471 13.7883 35.6642 13.9596 35.7172C14.1309 35.7703 14.2894 35.8581 14.4253 35.9752C14.5611 36.0922 14.6713 36.2361 14.749 36.3977C14.8267 36.5593 14.8702 36.7352 14.8768 36.9144C14.908 37.8439 14.0535 38.1246 13.255 38.1058H13.2488ZM8.25867 35.1991H6.19401C6.29542 35.5302 6.33972 35.8761 6.325 36.2221C6.325 37.0392 6.325 37.875 6.325 38.6797C6.325 39.2536 6.325 39.8087 6.325 40.3763C6.31465 40.4353 6.31768 40.4958 6.33386 40.5534C6.35005 40.611 6.37897 40.6642 6.4185 40.7091C6.45802 40.754 6.50714 40.7895 6.56222 40.8129C6.61729 40.8362 6.67692 40.8469 6.73668 40.8442H7.44154C7.37916 40.158 7.36669 39.3658 7.36669 38.636C7.54134 38.636 7.71599 38.636 7.89065 38.636C9.04461 38.636 10.3046 38.0809 10.3046 36.7647C10.2734 35.5546 9.26293 35.2178 8.25243 35.1991H8.25867ZM7.79085 38.1682C7.64738 38.1682 7.45401 38.1682 7.3355 38.1682V35.7106H7.90312C8.65164 35.7106 9.21927 36.0038 9.21927 36.8396C9.22477 37.0248 9.19055 37.209 9.11892 37.3798C9.04729 37.5507 8.9399 37.7042 8.80398 37.8301C8.66806 37.9559 8.50676 38.0512 8.33093 38.1096C8.1551 38.1679 7.96881 38.1879 7.78461 38.1682H7.79085ZM19.8295 52.3963L16.7855 45.4538C16.769 45.3331 16.7094 45.2224 16.6177 45.1422C16.526 45.0619 16.4084 45.0175 16.2865 45.0172H16.0994L12.5876 52.5023C12.5282 52.609 12.4981 52.7296 12.5003 52.8517C12.5075 52.8827 12.521 52.9119 12.5398 52.9376C12.5586 52.9633 12.5824 52.985 12.6098 53.0013C12.6371 53.0176 12.6675 53.0282 12.699 53.0325C12.7306 53.0368 12.7627 53.0347 12.7934 53.0263H13.5669C13.5587 52.9684 13.5587 52.9096 13.5669 52.8517C13.5704 52.7021 13.5999 52.5544 13.6542 52.415L14.4028 50.5999H17.4031L18.2202 52.6333C18.2448 52.7449 18.3073 52.8445 18.3972 52.9151C18.4871 52.9856 18.5987 53.0227 18.713 53.0201H20.2038C20.0369 52.8405 19.9094 52.628 19.8295 52.3963ZM14.6959 49.9012L15.9435 46.9446L17.1349 49.9012H14.6959Z" fill="white"/>
<path d="M62.3765 0H0V29.2671H62.3765V0Z" fill="#D73648"/>
<path d="M58.2098 3.64279H52.1842C52.3872 5.5777 52.458 7.5242 52.3963 9.46875C52.3963 11.471 52.2341 14.8706 52.2341 15.4694C52.2252 15.5519 52.2356 15.6353 52.2643 15.7131C52.2931 15.7909 52.3396 15.861 52.4 15.9178C52.4605 15.9746 52.5333 16.0167 52.6127 16.0406C52.6922 16.0645 52.7761 16.0697 52.8579 16.0557H54.3923C54.2932 15.7834 54.2385 15.497 54.2302 15.2074C54.0992 13.4047 54.0555 11.5771 54.0555 9.78064L54.9787 9.7245C55.9414 9.66637 56.9067 9.78043 57.8293 10.0613C57.9251 9.86581 57.9843 9.6544 58.0039 9.43757C57.9885 9.34472 57.9542 9.25605 57.9031 9.17704C57.8519 9.09804 57.7851 9.0304 57.7067 8.97833C57.6283 8.92626 57.54 8.89088 57.4474 8.87438C57.3547 8.85788 57.2596 8.86061 57.1681 8.88242H54.0493C54.0493 7.41657 54.1116 5.95696 54.1678 4.51606H55.1346C56.0017 4.51606 58.2534 4.51606 58.9396 4.94022C58.9947 4.7202 59.0137 4.49267 58.9957 4.26655C58.9882 4.17274 58.9615 4.08148 58.9172 3.99844C58.8729 3.9154 58.812 3.84236 58.7383 3.78386C58.6646 3.72535 58.5796 3.68264 58.4887 3.65837C58.3978 3.6341 58.3028 3.6288 58.2098 3.64279ZM50.525 4.28526H45.2916C45.5848 4.79675 45.5661 8.42707 45.5661 9.17559C45.5661 10.7412 45.4226 12.9806 45.4226 13.8725C45.411 13.9416 45.4143 14.0124 45.4323 14.0802C45.4502 14.1479 45.4824 14.211 45.5267 14.2653C45.5709 14.3196 45.6263 14.3639 45.689 14.3951C45.7517 14.4263 45.8204 14.4438 45.8904 14.4464H47.4436C47.2681 13.7874 47.1842 13.1073 47.1941 12.4254C47.1941 11.6083 47.1941 10.5978 47.1941 9.45628C47.4124 9.45628 47.8179 9.41262 48.1048 9.41262C48.9137 9.36162 49.7245 9.47624 50.4876 9.74945C50.4876 9.53113 50.5437 9.31281 50.5437 9.08826C50.5399 9.01353 50.5199 8.94051 50.4852 8.87424C50.4505 8.80797 50.4018 8.75001 50.3425 8.70436C50.2832 8.65871 50.2147 8.62645 50.1418 8.60981C50.0688 8.59317 49.9932 8.59254 49.9199 8.60796H47.1754C47.1754 7.45399 47.2315 6.3125 47.2752 5.1523H48.2857C49.3572 5.09238 50.4303 5.23631 51.4482 5.57646V5.52032C51.4482 4.85913 51.261 4.28526 50.525 4.28526ZM43.1833 9.52489C43.1833 8.68905 43.1833 7.8532 43.2269 7.02983C43.2269 6.5932 43.2831 6.13785 43.2831 5.69497C43.2784 5.64573 43.264 5.59791 43.2407 5.55426C43.2175 5.51061 43.1858 5.47201 43.1475 5.44069C43.1092 5.40937 43.0651 5.38595 43.0177 5.37178C42.9703 5.35761 42.9206 5.35297 42.8714 5.35814H41.443C41.6112 6.64415 41.6759 7.9416 41.6363 9.23796C41.6363 10.0426 41.6363 10.8598 41.5927 11.6831C41.5927 12.0511 41.5927 12.4441 41.5927 12.8121C41.5883 12.8742 41.597 12.9365 41.618 12.9951C41.639 13.0537 41.672 13.1072 41.7148 13.1524C41.7576 13.1975 41.8093 13.2333 41.8667 13.2574C41.924 13.2815 41.9858 13.2935 42.048 13.2924C42.5034 13.2924 42.94 13.2924 43.3954 13.2924C43.218 12.0447 43.1387 10.785 43.1583 9.52489H43.1833ZM57.0371 19.1558H56.2886C56.1456 19.6186 55.9354 20.0578 55.6648 20.4595C55.3592 20.971 55.0411 21.4825 54.8914 21.6758C54.4235 20.9585 53.9994 20.21 53.544 19.4802C53.4847 19.3697 53.3935 19.2796 53.2822 19.2218C53.1709 19.1639 53.0448 19.1409 52.9202 19.1558H51.9846C52.7893 20.2349 53.5191 21.3515 54.2239 22.493V23.1167C54.2239 23.6594 54.1615 24.2021 54.1615 24.5077C54.1658 24.5544 54.1799 24.5996 54.2029 24.6404C54.2259 24.6811 54.2574 24.7165 54.2951 24.7443C54.3328 24.772 54.376 24.7914 54.4218 24.8011C54.4676 24.8109 54.515 24.8108 54.5608 24.8009H55.3218C55.2469 23.9963 55.2344 23.1916 55.2344 22.3745C55.6461 21.6696 56.1139 20.9959 56.5818 20.341C56.7876 20.0478 56.9934 19.7671 57.2055 19.4927C57.2314 19.4448 57.2443 19.3911 57.2429 19.3367C57.2443 19.3104 57.2397 19.2841 57.2295 19.2598C57.2192 19.2355 57.2036 19.2138 57.1838 19.1964C57.164 19.179 57.1405 19.1663 57.1151 19.1593C57.0897 19.1523 57.063 19.1511 57.0371 19.1558ZM51.5105 19.1558H47.3687C47.2938 19.1463 47.2178 19.1522 47.1452 19.173C47.0727 19.1939 47.0051 19.2294 46.9467 19.2773C46.8883 19.3251 46.8403 19.3844 46.8056 19.4515C46.771 19.5186 46.7503 19.592 46.745 19.6673V19.9605C47.3654 19.8807 47.9909 19.8473 48.6163 19.8607C48.6537 20.5843 48.6537 21.208 48.6537 21.8942C48.6537 23.0481 48.5976 23.5908 48.5976 24.4391C48.5939 24.4968 48.6039 24.5545 48.6267 24.6076C48.6495 24.6607 48.6845 24.7076 48.7289 24.7447C48.7732 24.7817 48.8256 24.8078 48.8819 24.8209C48.9382 24.8339 48.9968 24.8334 49.0529 24.8196H49.7578C49.6765 23.8613 49.6474 22.8993 49.6704 21.9378C49.6704 21.2642 49.6704 20.3846 49.6704 19.8919C50.2256 19.8919 50.7683 19.9667 51.1612 19.9667C51.2186 19.9579 51.2736 19.9373 51.3227 19.9064C51.3718 19.8754 51.4141 19.8347 51.4468 19.7867C51.4796 19.7388 51.5021 19.6846 51.5131 19.6276C51.524 19.5706 51.5232 19.5119 51.5105 19.4552V19.1683V19.1558ZM45.8156 21.7008C45.8156 20.5718 45.8717 20.3098 45.8717 19.6112C45.8849 19.5464 45.8821 19.4794 45.8635 19.416C45.8449 19.3525 45.811 19.2946 45.7649 19.2472C45.7188 19.1999 45.6617 19.1645 45.5988 19.1442C45.5359 19.124 45.469 19.1194 45.4039 19.1309H44.7365C44.8127 20.0061 44.8419 20.8848 44.8238 21.7632C44.8238 23.1666 44.7676 23.491 44.7676 24.3393C44.7591 24.4001 44.7643 24.4619 44.7828 24.5204C44.8012 24.5789 44.8325 24.6325 44.8744 24.6774C44.9162 24.7222 44.9676 24.7571 45.0246 24.7796C45.0817 24.802 45.1431 24.8115 45.2043 24.8071H45.9091C45.8468 24.1709 45.8156 23.2228 45.8156 21.7133V21.7008ZM40.6757 20.4533C40.6818 20.3386 40.7113 20.2264 40.7623 20.1235C40.8133 20.0207 40.8849 19.9293 40.9725 19.8551C41.0601 19.7809 41.162 19.7255 41.2719 19.6921C41.3818 19.6587 41.4973 19.6482 41.6114 19.6611C41.8604 19.6606 42.1054 19.7233 42.3236 19.8433C42.5418 19.9633 42.726 20.1367 42.8589 20.3472C43.0158 20.1401 43.1206 19.8984 43.1646 19.6424C43.1646 19.1621 42.0667 19.056 41.7174 19.056C40.7256 19.056 39.7588 19.5862 39.7588 20.6529C39.7588 22.5242 42.4223 22.0314 42.4223 23.2727C42.4271 23.4063 42.4036 23.5395 42.3533 23.6635C42.303 23.7874 42.227 23.8993 42.1304 23.9918C42.0338 24.0843 41.9187 24.1553 41.7927 24.2001C41.6667 24.245 41.5326 24.2626 41.3993 24.252C41.0818 24.2457 40.77 24.1659 40.4886 24.0186C40.2072 23.8714 39.9638 23.6609 39.7775 23.4037C39.7076 23.6272 39.6596 23.857 39.634 24.0898C39.6252 24.1963 39.6499 24.3029 39.7047 24.3947C39.7595 24.4864 39.8417 24.5587 39.9397 24.6013C40.3121 24.793 40.7247 24.8935 41.1436 24.8945C42.2726 24.8945 43.3517 24.2707 43.3517 23.0232C43.3205 21.208 40.6757 21.7756 40.6757 20.4595V20.4533ZM32.5169 23.9713C31.9678 24.1599 31.3874 24.2404 30.8078 24.2083H30.4086C30.1902 24.2083 30.1902 24.0898 30.1902 23.9027C30.1902 23.7156 30.1902 22.7175 30.1902 22.5741V22.1374C30.883 22.1135 31.5761 22.1721 32.2549 22.3121C32.2549 22.1686 32.2549 22.0064 32.2549 21.8567C32.2554 21.8045 32.244 21.7528 32.2215 21.7056C32.1991 21.6585 32.1661 21.6171 32.1252 21.5846C32.0843 21.5521 32.0365 21.5294 31.9855 21.5182C31.9344 21.507 31.8815 21.5076 31.8307 21.5199C31.2881 21.5199 30.7017 21.576 30.159 21.576V20.5843C30.159 20.3098 30.159 20.0104 30.2027 19.7235C30.9592 19.6882 31.7169 19.7575 32.4545 19.9293C32.4545 19.5925 32.4545 19.1558 31.968 19.1558H29.0051C29.0667 19.2545 29.1071 19.365 29.1236 19.4802C29.1673 20.1663 29.1673 20.8587 29.1673 21.5449C29.1673 22.4992 29.1236 23.4161 29.1236 24.4017C29.1124 24.4501 29.1129 24.5006 29.1251 24.5488C29.1374 24.597 29.161 24.6416 29.1939 24.6788C29.2269 24.716 29.2683 24.7448 29.3146 24.7628C29.361 24.7808 29.411 24.7875 29.4604 24.7822H32.0802C32.1356 24.7894 32.1918 24.7846 32.2451 24.768C32.2984 24.7514 32.3475 24.7235 32.389 24.6862C32.4305 24.6488 32.4634 24.603 32.4855 24.5517C32.5075 24.5004 32.5183 24.445 32.5169 24.3892V23.9713ZM27.8449 19.1434H27.0527C27.0689 19.4566 27.0022 19.7686 26.8593 20.0478C26.4165 21.1332 25.8301 22.4867 25.381 23.4037C25.0878 22.7799 24.6387 21.6883 24.2707 20.815C24.0773 20.3722 23.9339 19.9917 23.7467 19.5675C23.6909 19.4282 23.5897 19.3119 23.4595 19.2372C23.3294 19.1625 23.1779 19.1338 23.0294 19.1558H22.2996C23.1791 21.0271 24.0524 22.8984 24.8321 24.8508H25.5744C26.3229 23.0357 27.1712 21.2829 28.0008 19.4927C28.0088 19.4599 28.0088 19.4257 28.0008 19.3929C28.0092 19.3658 28.0118 19.3373 28.0083 19.3091C28.0048 19.281 27.9954 19.254 27.9806 19.2298C27.9659 19.2056 27.9461 19.1848 27.9227 19.1688C27.8993 19.1529 27.8728 19.142 27.8449 19.1371V19.1434ZM13.9723 4.19794C12.9036 3.66966 11.7276 3.39434 10.5354 3.39328C6.6119 3.39328 4.0108 6.55577 4.0108 10.4169C4.0108 14.1595 6.86141 16.5922 10.5104 16.5922C11.8697 16.6143 13.2049 16.2322 14.3466 15.4943L14.1969 14.2468C13.3973 15.003 12.3521 15.4458 11.2527 15.4943C8.03409 15.4943 5.8821 12.8184 5.8821 9.69955C5.8821 7.03607 7.40409 4.41626 10.3295 4.41626C11.3165 4.39699 12.2774 4.73354 13.0367 5.36438C13.4579 5.72282 13.7548 6.20537 13.885 6.7429C14.2613 6.2422 14.5174 5.6617 14.6335 5.04626C14.613 4.85741 14.5402 4.67802 14.4234 4.52819C14.3066 4.37836 14.1504 4.264 13.9723 4.19794ZM21.102 21.7133C21.102 20.5843 21.1581 20.3223 21.1581 19.6237C21.1723 19.5599 21.1706 19.4936 21.1531 19.4306C21.1357 19.3676 21.1031 19.3099 21.0581 19.2625C21.0131 19.2151 20.9572 19.1794 20.8953 19.1586C20.8333 19.1379 20.7672 19.1326 20.7028 19.1434H20.0166C20.0937 20.0185 20.1228 20.8973 20.104 21.7756C20.104 23.1791 20.0416 23.5035 20.0416 24.3518C20.0325 24.4142 20.038 24.4779 20.0575 24.5379C20.077 24.5979 20.11 24.6527 20.154 24.6979C20.198 24.7431 20.2518 24.7776 20.3113 24.7987C20.3707 24.8198 20.4343 24.827 20.4969 24.8196H21.208C21.1332 24.1709 21.102 23.2228 21.102 21.7133ZM18.0268 19.1683H17.4654C17.5091 20.1164 17.5216 21.0396 17.5216 22.0189V22.9982C16.1493 21.7507 14.8706 20.4221 13.5295 19.1059H13.0991C13.0991 19.3679 13.0991 19.6486 13.0991 19.9231C13.0991 21.0209 13.0991 22.5117 13.0554 23.2165C13.0117 23.9214 12.9556 24.1522 12.9556 24.5639C12.951 24.6017 12.9559 24.6401 12.9698 24.6757C12.9836 24.7112 13.0061 24.7427 13.0351 24.7674C13.0642 24.7921 13.0989 24.8093 13.1362 24.8173C13.1734 24.8253 13.2121 24.824 13.2488 24.8134H13.8725C13.795 24.2116 13.7617 23.6049 13.7727 22.9982C13.7727 22.2996 13.7727 21.6384 13.7727 20.9336C15.1325 22.2622 16.4799 23.5097 17.7711 24.9132H18.2139C18.2139 23.9588 18.1703 23.0419 18.1703 22.0751C18.1703 21.5449 18.2139 21.0646 18.2264 20.5843C18.2389 20.104 18.3013 19.7235 18.3013 19.474C18.3092 19.4348 18.3079 19.3944 18.2975 19.3558C18.287 19.3173 18.2676 19.2818 18.241 19.2521C18.2143 19.2224 18.181 19.1993 18.1438 19.1848C18.1066 19.1702 18.0666 19.1646 18.0268 19.1683ZM11.0219 19.1683H10.4917C10.5711 19.6821 10.6087 20.2016 10.604 20.7215C10.604 21.0583 10.604 21.6696 10.604 22.1561C10.604 23.3101 10.2547 24.2208 8.90736 24.2208C7.35419 24.2208 7.19824 23.2852 7.19824 21.969C7.19824 21.1207 7.28557 20.0977 7.28557 19.4116C7.28727 19.3728 7.28014 19.3342 7.26471 19.2986C7.24928 19.263 7.22596 19.2314 7.19651 19.2062C7.16706 19.181 7.13226 19.1627 7.09474 19.1529C7.05722 19.1431 7.01796 19.142 6.97993 19.1496H6.13161C6.17527 19.7734 6.18774 20.1913 6.18774 21.1706C6.18774 21.5823 6.18774 22.1374 6.18774 22.5616C6.18774 24.2458 7.13587 24.9194 8.74518 24.9194C10.3545 24.9194 11.2402 24.1023 11.3089 22.5366C11.3775 20.971 11.4398 19.9605 11.4398 19.4615C11.4452 19.4088 11.4371 19.3557 11.4163 19.3071C11.3955 19.2584 11.3626 19.2159 11.3208 19.1835C11.279 19.151 11.2296 19.1297 11.1774 19.1216C11.1251 19.1135 11.0716 19.1189 11.0219 19.1371V19.1683ZM34.463 4.32893L30.6144 4.36635C30.8202 4.69071 30.9076 5.27705 30.9637 6.45597C31.0198 7.323 31.0386 8.19627 31.0386 9.07578C31.0386 10.1424 31.0386 11.1966 30.9949 12.2632C30.9949 12.8496 30.9325 13.4359 30.9325 14.016C30.9357 14.0756 30.9507 14.1339 30.9766 14.1876C31.0026 14.2413 31.039 14.2893 31.0837 14.3288C31.1284 14.3683 31.1806 14.3985 31.2371 14.4176C31.2936 14.4367 31.3533 14.4444 31.4128 14.4402H34.3071C37.5694 14.4402 40.0021 12.6375 40.0021 9.23172C40.0021 5.82597 37.7129 4.32893 34.463 4.32893ZM34.463 13.5607H33.2155C33.1548 13.5727 33.0921 13.571 33.0321 13.5559C32.9721 13.5407 32.9162 13.5124 32.8685 13.4731C32.8207 13.4337 32.7823 13.3841 32.756 13.3281C32.7297 13.2721 32.7162 13.2109 32.7165 13.149C32.669 12.8142 32.644 12.4766 32.6416 12.1385C32.6416 11.4773 32.598 10.498 32.598 9.68084C32.598 8.17132 32.6541 6.66805 32.7165 5.15854C33.0799 5.10486 33.447 5.07983 33.8143 5.08368C36.4217 5.08368 38.1807 6.56201 38.1807 9.30034C38.2368 11.7081 37.0828 13.5669 34.488 13.5669L34.463 13.5607ZM36.7148 22.3869C37.1052 22.3157 37.4594 22.1128 37.7183 21.812C37.9771 21.5111 38.1249 21.1306 38.137 20.734C38.137 19.5176 37.0828 19.1683 36.0599 19.1683H34.6876C34.4693 19.1683 34.251 19.1683 34.0139 19.1683C34.0943 19.2794 34.1399 19.4118 34.1449 19.5488C34.1886 20.1726 34.1449 21.1269 34.1449 21.9191C34.1449 22.493 34.1449 23.0606 34.1449 23.6158C34.1449 23.8777 34.1449 24.1584 34.1449 24.4204C34.1385 24.4742 34.1451 24.5288 34.1642 24.5795C34.1833 24.6302 34.2144 24.6756 34.2549 24.7117C34.2953 24.7478 34.3438 24.7737 34.3963 24.787C34.4489 24.8004 34.5038 24.8009 34.5566 24.7884H35.3051C35.2224 24.0555 35.1891 23.3178 35.2053 22.5803H35.8291C36.2657 23.2852 36.6899 23.9401 37.2014 24.6263C37.3777 24.8958 37.6226 25.1135 37.9109 25.2571C38.1992 25.4007 38.5205 25.465 38.8419 25.4434H39.1475C38.2464 24.5078 37.4418 23.4838 36.746 22.3869H36.7148ZM35.4673 22.0938H35.1804V21.5261C35.1804 21.102 35.1804 20.079 35.224 19.6548H35.7106C35.8888 19.635 36.0692 19.6521 36.2405 19.7052C36.4118 19.7582 36.5703 19.846 36.7061 19.9631C36.842 20.0802 36.9522 20.224 37.0299 20.3856C37.1076 20.5473 37.1511 20.7232 37.1577 20.9024C37.1515 21.8318 36.3031 22.0938 35.4985 22.0938H35.4673ZM20.3971 12.7373L17.3843 5.79478C17.3666 5.67459 17.3066 5.56465 17.2152 5.48465C17.1237 5.40464 17.0068 5.3598 16.8853 5.35814H16.692L13.1864 12.8184C13.1257 12.9313 13.0956 13.0582 13.0991 13.1864C13.0991 13.3174 13.2612 13.3486 13.3922 13.3486H14.1657C14.1581 13.2906 14.1581 13.2319 14.1657 13.1739C14.1694 13.0244 14.199 12.8767 14.253 12.7373L14.9704 10.9159H17.9707L18.8065 12.9618C18.8331 13.0745 18.8995 13.1738 18.9935 13.2415C19.0875 13.3091 19.2027 13.3405 19.318 13.3299H20.8088C20.6452 13.1681 20.5158 12.975 20.4283 12.7622L20.3971 12.7373ZM15.2448 10.2422L16.536 7.28558L17.7087 10.2422H15.276H15.2448ZM26.3167 10.4668C27.0596 10.2761 27.7189 9.84581 28.1925 9.24251C28.6661 8.63921 28.9276 7.89658 28.9365 7.12964C28.9365 5.02131 27.0652 4.24784 25.1939 4.24784C24.0087 4.24784 22.8111 4.24784 21.6072 4.2915C21.7507 4.65897 21.8207 5.05105 21.8131 5.44547C21.8131 6.8926 21.8131 8.20875 21.8131 9.21925C21.8131 12.0137 21.6821 13.623 21.6821 14.1532C21.6821 14.3716 21.7694 14.4027 21.9628 14.4027H23.8341C23.7466 14.2353 23.7017 14.0489 23.7031 13.8601C23.5705 12.8467 23.5059 11.8256 23.5097 10.8036C23.9027 10.8036 24.358 10.8036 24.7572 10.8036C25.275 11.6207 25.9174 12.5751 26.6285 13.5419C27.7326 14.9891 29.2296 16.6608 30.9949 16.6608C31.4286 16.6537 31.8616 16.6245 32.2923 16.5734C30.2401 15.8187 27.5767 12.3381 26.3478 10.498L26.3167 10.4668ZM24.489 10.0551H23.466V8.32726C23.466 7.2731 23.466 6.07547 23.5534 5.0525C23.8902 5.02131 24.2395 4.99012 24.5764 4.99012C26.0672 4.99012 27.271 5.7823 27.271 7.39162C27.2828 7.75346 27.2192 8.11379 27.0844 8.44978C26.9495 8.78576 26.7464 9.09007 26.4877 9.34341C26.2291 9.59676 25.9207 9.79361 25.582 9.92148C25.2433 10.0494 24.8817 10.1055 24.5202 10.0863L24.489 10.0551Z" fill="white"/>
<path d="M62.3765 29.2671H0V30.7329H62.3765V29.2671Z" fill="white"/>
</g>
<defs>
<clipPath id="clip0_15_18">
<rect width="62.3765" height="60" fill="white"/>
</clipPath>
</defs>
</svg>
